<?xml version="1.0" encoding="UTF-8" standalone="no"?>
<svg
   xmlns:dc="http://purl.org/dc/elements/1.1/"
   xmlns:cc="http://creativecommons.org/ns#"
   xmlns:rdf="http://www.w3.org/1999/02/22-rdf-syntax-ns#"
   xmlns:svg="http://www.w3.org/2000/svg"
   xmlns="http://www.w3.org/2000/svg"
   xmlns:sodipodi="http://sodipodi.sourceforge.net/DTD/sodipodi-0.dtd"
   xmlns:inkscape="http://www.inkscape.org/namespaces/inkscape"
   height="730"
   width="730"
   inkscape:version="1.0 (4035a4fb49, 2020-05-01)"
   sodipodi:docname="code-solid-2.svg"
   id="svg4"
   version="1.1"
   viewBox="0 0 730 730"
   role="img"
   class="svg-inline--fa fa-code fa-w-20"
   data-icon="code"
   data-prefix="fas"
   focusable="false"
   aria-hidden="true">
  <metadata
     id="metadata10">
    <rdf:RDF>
      <cc:Work
         rdf:about="">
        <dc:format>image/svg+xml</dc:format>
        <dc:type
           rdf:resource="http://purl.org/dc/dcmitype/StillImage" />
        <dc:title></dc:title>
      </cc:Work>
    </rdf:RDF>
  </metadata>
  <defs
     id="defs8" />
  <sodipodi:namedview
     inkscape:current-layer="svg4"
     inkscape:window-maximized="1"
     inkscape:window-y="-8"
     inkscape:window-x="-8"
     inkscape:cy="343.12977"
     inkscape:cx="382.44821"
     inkscape:zoom="0.79609375"
     showgrid="false"
     id="namedview6"
     inkscape:window-height="1017"
     inkscape:window-width="1920"
     inkscape:pageshadow="2"
     inkscape:pageopacity="0"
     guidetolerance="10"
     gridtolerance="10"
     objecttolerance="10"
     borderopacity="1"
     bordercolor="#666666"
     pagecolor="#ffffff" />
  <rect
     ry="128"
     rx="128"
     y="0.12120833"
     x="0.12120833"
     height="730"
     width="730"
     id="rect835"
     style="fill:#ffffff;fill-opacity:1;stroke-width:1.05471" />
  <path
     id="path2"
     d="m 323.9,620.48208 -61,-17.7 c -6.4,-1.8 -10,-8.5 -8.2,-14.9 l 136.5,-470.2 c 1.8,-6.4 8.5,-10 14.9,-8.2 l 61,17.7 c 6.4,1.8 10,8.5 8.2,14.9 l -136.5,470.2 c -1.9,6.4 -8.5,10.1 -14.9,8.2 z m -114,-112.2 43.5,-46.4 c 4.6,-4.9 4.3,-12.7 -0.8,-17.2 l -90.6,-79.7 90.6,-79.7 c 5.1,-4.5 5.5,-12.3 0.8,-17.2 l -43.5,-46.4 c -4.5,-4.8 -12.1,-5.1 -17,-0.5 l -144.1,135 c -5.1,4.7 -5.1,12.8 0,17.5 l 144.1,135.1 c 4.9,4.6 12.5,4.4 17,-0.5 z m 327.2,0.6 144.1,-135.1 c 5.1,-4.7 5.1,-12.8 0,-17.5 l -144.1,-135.2 c -4.8,-4.5 -12.4,-4.3 -17,0.5 l -43.5,46.4 c -4.6,4.9 -4.3,12.7 0.8,17.2 l 90.6,79.8 -90.6,79.7 c -5.1,4.5 -5.5,12.3 -0.8,17.2 l 43.5,46.4 c 4.5,4.9 12.1,5.1 17,0.6 z"
     fill="currentColor" />
</svg>
